<svg width="1024" height="1024" viewBox="0 0 1024 1024" fill="none" xmlns="http://www.w3.org/2000/svg">
<defs>
  <linearGradient id="bg" x1="120" y1="80" x2="920" y2="960" gradientUnits="userSpaceOnUse">
    <stop offset="0" stop-color="#073743"/>
    <stop offset="0.62" stop-color="#166589"/>
    <stop offset="1" stop-color="#2F9980"/>
  </linearGradient>
  <filter id="shadow" x="-20%" y="-20%" width="140%" height="140%">
    <feDropShadow dx="12" dy="22" stdDeviation="20" flood-color="#000000" flood-opacity="0.28"/>
  </filter>
</defs>
<rect width="1024" height="1024" rx="220" fill="url(#bg)"/>
<g opacity="0.12" stroke="#FFFFFF" stroke-width="4">
  <path d="M-120 120L420 1020"/>
  <path d="M0 100L540 1020"/>
  <path d="M120 80L660 1020"/>
  <path d="M240 70L780 1020"/>
  <path d="M360 70L900 1020"/>
  <path d="M110 120H914"/>
  <path d="M110 240H914"/>
  <path d="M110 360H914"/>
  <path d="M110 480H914"/>
  <path d="M110 600H914"/>
  <path d="M110 720H914"/>
  <path d="M110 840H914"/>
</g>
<rect x="242" y="174" width="540" height="616" rx="58" fill="#F7FCFA" filter="url(#shadow)"/>
<rect x="292" y="224" width="440" height="80" rx="34" fill="#DBF2EC"/>
<text x="512" y="280" text-anchor="middle" font-family="Arial, Helvetica, sans-serif" font-size="54" font-weight="700" fill="#0B4752">OpenTax</text>
<circle cx="512" cy="504" r="164" fill="#0F5B6A"/>
<circle cx="512" cy="504" r="137" stroke="#FFFFFF" stroke-opacity="0.25" stroke-width="7"/>
<text x="512" y="590" text-anchor="middle" font-family="Arial, Helvetica, sans-serif" font-size="250" font-weight="700" fill="#FFFFFF">₩</text>
<rect x="316" y="700" width="42" height="42" rx="12" fill="#E0F3EE"/>
<path d="M326 721L340 734L352 712" stroke="#30AB84" stroke-width="7" stroke-linecap="round" stroke-linejoin="round"/>
<rect x="380" y="710" width="320" height="14" rx="7" fill="#77A0A6" opacity="0.82"/>
<rect x="380" y="730" width="240" height="10" rx="5" fill="#AECBCC" opacity="0.75"/>
<rect x="316" y="750" width="42" height="42" rx="12" fill="#E0F3EE"/>
<path d="M326 771L340 784L352 762" stroke="#30AB84" stroke-width="7" stroke-linecap="round" stroke-linejoin="round"/>
<rect x="380" y="760" width="320" height="14" rx="7" fill="#77A0A6" opacity="0.82"/>
<rect x="380" y="780" width="240" height="10" rx="5" fill="#AECBCC" opacity="0.75"/>
<circle cx="745" cy="749" r="99" fill="#FFFFFF" filter="url(#shadow)"/>
<circle cx="745" cy="749" r="81" fill="#2AA57E"/>
<path d="M700 748L742 790L796 715" stroke="#FFFFFF" stroke-width="22" stroke-linecap="round" stroke-linejoin="round"/>
<circle cx="168" cy="216" r="10" fill="#FFFFFF" opacity="0.55"/>
<circle cx="846" cy="238" r="8" fill="#FFFFFF" opacity="0.42"/>
<circle cx="182" cy="812" r="7" fill="#FFFFFF" opacity="0.48"/>
<circle cx="872" cy="742" r="11" fill="#FFFFFF" opacity="0.38"/>
</svg>